# xmcd
#
# Track frame offsets:
#	150
#	15052
#	34639
#	54096
#	77121
#	92856
#	116106
#
# Disc length: 1763 seconds
#
# Revision: 1
# Processed by: cddbd v1.5.1PL0 Copyright (c) Steve Scherf et al.
# Submitted via: CDex 1.50Beta5
#
DISCID=4406e107
DTITLE=さまざまなアーティスト - SINGLE MIX CD VOL,1
DYEAR=1900
DGENRE=Pop
TTITLE0=B-DASH/ちょ
TTITLE1=森山直太朗/さくら
TTITLE2=平井堅/LIFE is... 〜another story〜
TTITLE3=BoA/Shine We Are
TTITLE4=B-DASH/SECTOR
TTITLE5=はなわ/佐賀県
TTITLE6=島谷ひとみ/元気を出して
EXTD=
EXTT0=
EXTT1=
EXTT2=
EXTT3=
EXTT4=
EXTT5=
EXTT6=
PLAYORDER=
